<?xml version="1.0" standalone="no"?>
<!DOCTYPE svg PUBLIC "-//W3C//DTD SVG 20010904//EN"
 "http://www.w3.org/TR/2001/REC-SVG-20010904/DTD/svg10.dtd">
<svg version="1.0" xmlns="http://www.w3.org/2000/svg"
 width="431.000000pt" height="431.000000pt" viewBox="0 0 431.000000 431.000000"
 preserveAspectRatio="xMidYMid meet">
<metadata>
Created by potrace 1.14, written by Peter Selinger 2001-2017
</metadata>
<g transform="translate(0.000000,431.000000) scale(0.100000,-0.100000)"
fill="#000000" stroke="none">
<path d="M1615 4114 c-283 -28 -567 -119 -639 -204 -32 -38 -32 -53 -4 -92 21
-30 23 -30 82 -24 34 3 103 17 154 31 51 14 108 25 125 24 l32 -1 -28 -8 c-39
-12 -55 -27 -79 -73 -21 -43 -25 -89 -14 -177 6 -51 6 -53 -9 -36 -8 11 -15
35 -15 53 0 19 -6 36 -13 39 -7 2 -78 -11 -158 -30 -188 -44 -225 -52 -339
-72 -144 -24 -201 -43 -231 -75 -48 -52 -46 -121 7 -219 118 -217 462 -269
939 -140 94 25 115 35 142 64 41 44 55 98 52 199 l-2 82 79 12 c216 34 517 33
682 -2 106 -22 110 -21 117 23 4 20 18 76 31 124 13 48 24 95 24 105 0 40 -23
95 -52 129 -55 62 -73 67 -288 75 -196 7 -287 22 -337 55 -28 18 -30 55 -3 79
25 22 26 41 3 50 -21 9 -199 15 -258 9z"/>
<path d="M2985 3900 c-3 -5 -13 -49 -21 -97 -40 -228 -129 -361 -423 -633 -62
-58 -149 -147 -193 -198 -96 -112 -204 -195 -342 -263 -143 -69 -227 -89 -431
-99 -116 -6 -206 -16 -285 -33 -63 -14 -182 -37 -265 -52 -176 -31 -246 -59
-270 -106 -35 -67 1 -183 81 -264 110 -109 286 -155 518 -135 341 30 773 179
1130 390 l87 51 83 -15 c116 -22 136 -21 136 7 0 12 9 56 20 96 12 40 19 75
17 77 -2 2 -29 -14 -60 -37 -32 -22 -57 -38 -57 -36 0 2 37 33 83 69 284 225
454 500 474 764 14 190 -61 382 -189 484 -50 39 -81 50 -93 30z"/>
<path d="M1820 3080 c-212 -35 -337 -70 -449 -126 -77 -39 -91 -49 -115 -86
-17 -27 -17 -29 3 -62 12 -19 27 -36 35 -39 34 -13 254 40 415 99 99 37 321
143 356 169 18 14 18 16 2 33 -21 20 -155 27 -247 12z"/>
<path d="M3271 2849 c-6 -18 -11 -44 -11 -58 0 -49 -30 -145 -70 -226 -61
-124 -155 -240 -379 -465 -220 -221 -303 -286 -476 -373 -176 -88 -307 -124
-553 -152 -160 -18 -568 -90 -635 -111 -92 -30 -126 -92 -102 -184 18 -68 38
-101 94 -153 174 -163 481 -179 926 -50 224 65 538 202 730 318 l72 44 94 -19
c52 -11 99 -20 106 -20 7 0 15 17 18 38 4 20 15 66 25 102 11 35 18 66 16 67
-1 2 -29 -16 -62 -38 -71 -51 -56 -35 53 55 162 133 305 308 374 461 47 105
69 204 69 316 0 123 -13 184 -57 278 -44 93 -147 201 -192 201 -24 0 -31 -6
-40 -31z"/>
<path d="M2090 2049 c-211 -25 -439 -103 -518 -177 -39 -37 -40 -61 -5 -102
25 -31 29 -32 77 -26 171 22 577 170 678 248 17 12 15 15 -15 35 -40 26 -116
34 -217 22z"/>
<path d="M3571 1838 c-5 -13 -12 -48 -15 -78 -24 -187 -133 -369 -376 -623
-284 -298 -608 -484 -979 -562 -91 -19 -111 -19 -111 1 0 8 -4 12 -10 9 -16
-10 -11 -106 10 -189 26 -101 73 -196 128 -257 83 -92 117 -97 283 -40 607
210 1103 578 1276 946 54 115 73 187 80 300 11 179 -42 330 -157 447 -74 75
-113 89 -129 46z"/>
</g>
</svg>
