<svg width="68" height="68" viewBox="0 0 68 68" fill="none" xmlns="http://www.w3.org/2000/svg">
<path d="M44.5401 5.10119C44.1391 5.90852 44.0751 6.84198 44.362 7.69647C44.6489 8.55096 45.2632 9.25657 46.0701 9.65833C50.4159 11.8108 54.1075 15.0863 56.7623 19.1456C59.417 23.2048 60.9385 27.9002 61.1691 32.7454C61.3998 37.5905 60.3311 42.4093 58.0739 46.7025C55.8167 50.9956 52.4531 54.6071 48.3312 57.1629C44.2094 59.7188 39.4796 61.1257 34.6314 61.2383C29.783 61.351 24.993 60.1649 20.7571 57.8033C16.5211 55.4416 12.9935 51.9901 10.5395 47.8063C8.08551 43.6227 6.79444 38.8587 6.80002 34.0079C6.77807 28.9369 8.18597 23.9626 10.8621 19.6555C13.5383 15.3487 17.3745 11.8836 21.93 9.65833C22.7416 9.25239 23.3587 8.54067 23.6456 7.67967C23.9325 6.81869 23.8657 5.87894 23.46 5.06719C23.0541 4.25544 22.3426 3.63817 21.4819 3.35117C20.6212 3.06418 19.6816 3.13096 18.87 3.53683C12.0045 6.94918 6.49354 12.5821 3.23149 19.5215C-0.0305828 26.4609 -0.852212 34.2993 0.899934 41.7645C2.65206 49.2297 6.87514 55.8835 12.8837 60.646C18.8922 65.4084 26.3337 68 34 68C41.6664 68 49.1077 65.4084 55.1162 60.646C61.1249 55.8835 65.3479 49.2297 67.1 41.7645C68.8523 34.2993 68.0306 26.4609 64.7685 19.5215C61.5065 12.5821 55.9954 6.94917 49.1301 3.53683C48.7266 3.33417 48.287 3.21387 47.8367 3.18295C47.3864 3.15202 46.9344 3.21108 46.5071 3.35668C46.0799 3.50231 45.6859 3.73156 45.3482 4.03107C45.0104 4.33058 44.7357 4.69437 44.5401 5.10119V5.10119ZM30.6 3.40081V36.0144L22.8141 28.1926C22.497 27.8756 22.1206 27.624 21.7064 27.4524C21.2922 27.2807 20.8483 27.1924 20.4 27.1924C19.9517 27.1924 19.5078 27.2807 19.0936 27.4524C18.6794 27.624 18.3031 27.8756 17.986 28.1926C17.669 28.5097 17.4176 28.8862 17.246 29.3005C17.0743 29.7148 16.9861 30.1588 16.9861 30.6072C16.9861 31.0556 17.0743 31.4996 17.246 31.9139C17.4176 32.3282 17.669 32.7046 17.986 33.0218L31.5861 46.6249C31.9094 46.9346 32.2906 47.1772 32.7081 47.3391C33.5358 47.6793 34.4643 47.6793 35.292 47.3391C35.7093 47.1772 36.0907 46.9346 36.414 46.6249L50.0139 33.0218C50.3327 32.7056 50.5856 32.3295 50.7581 31.915C50.9308 31.5006 51.0197 31.0561 51.0197 30.6072C51.0197 30.1583 50.9308 29.7138 50.7581 29.2993C50.5856 28.8849 50.3327 28.5088 50.0139 28.1926C49.6978 27.8739 49.3218 27.6209 48.9076 27.4482C48.4932 27.2755 48.0489 27.1867 47.6001 27.1867C47.1511 27.1867 46.7067 27.2755 46.2923 27.4482C45.8781 27.6209 45.5021 27.8739 45.186 28.1926L37.4001 36.0144V3.40081C37.4001 2.49885 37.0418 1.63385 36.4042 0.99608C35.7666 0.358308 34.9018 0 34 0C33.0983 0 32.2335 0.358308 31.5959 0.99608C30.9582 1.63385 30.6 2.49885 30.6 3.40081V3.40081Z" fill="#2D2B5C"/>
</svg>
