<svg aria-hidden="true" style="position: absolute; width: 0; height: 0; overflow: hidden;" version="1.1" xmlns="http://www.w3.org/2000/svg" xmlns:xlink="http://www.w3.org/1999/xlink">
<defs>
<symbol id="icon-car" viewBox="0 0 32 32">
<path d="M8.827 17.44c-0.165 0.060-0.316 0.155-0.44 0.28s-0.22 0.275-0.28 0.44c-0.097 0.242-0.121 0.508-0.068 0.763s0.179 0.49 0.363 0.675c0.185 0.185 0.419 0.311 0.675 0.363s0.521 0.029 0.763-0.068c0.162-0.067 0.31-0.162 0.44-0.28 0.118-0.13 0.212-0.278 0.28-0.44 0.075-0.158 0.111-0.332 0.107-0.507-0.005-0.353-0.143-0.691-0.387-0.947-0.188-0.185-0.426-0.31-0.684-0.36s-0.526-0.022-0.769 0.080zM26.347 12.107l-1.813-5.373c-0.277-0.782-0.79-1.459-1.468-1.937s-1.489-0.733-2.318-0.73h-9.493c-0.83-0.003-1.64 0.252-2.319 0.73s-1.192 1.155-1.468 1.937l-1.813 5.413c-0.853 0.223-1.608 0.722-2.148 1.419s-0.835 1.553-0.838 2.434v5.333c0.002 0.825 0.26 1.63 0.737 2.303s1.151 1.182 1.929 1.457v1.573c0 0.354 0.14 0.693 0.391 0.943s0.589 0.391 0.943 0.391c0.354 0 0.693-0.14 0.943-0.391s0.391-0.589 0.391-0.943v-1.333h16v1.333c0 0.354 0.14 0.693 0.391 0.943s0.589 0.391 0.943 0.391c0.354 0 0.693-0.14 0.943-0.391s0.391-0.589 0.391-0.943v-1.573c0.778-0.275 1.452-0.784 1.929-1.457s0.735-1.478 0.737-2.303v-5.333c-0.003-0.882-0.298-1.737-0.838-2.434s-1.295-1.196-2.148-1.419v-0.040zM9.987 7.573c0.089-0.265 0.26-0.495 0.487-0.658s0.5-0.25 0.78-0.249h9.493c0.291-0.015 0.578 0.065 0.819 0.229s0.421 0.402 0.514 0.678l1.4 4.427h-14.96l1.467-4.427zM26.667 21.333c0 0.354-0.14 0.693-0.391 0.943s-0.589 0.391-0.943 0.391h-18.667c-0.354 0-0.693-0.14-0.943-0.391s-0.391-0.589-0.391-0.943v-5.333c0-0.354 0.14-0.693 0.391-0.943s0.589-0.391 0.943-0.391h18.667c0.354 0 0.693 0.14 0.943 0.391s0.391 0.589 0.391 0.943v5.333zM22.16 17.44c-0.166 0.060-0.316 0.155-0.44 0.28s-0.22 0.275-0.28 0.44c-0.097 0.242-0.121 0.508-0.068 0.763s0.179 0.49 0.363 0.675c0.185 0.185 0.419 0.311 0.675 0.363s0.521 0.029 0.763-0.068c0.166-0.060 0.316-0.155 0.44-0.28s0.22-0.275 0.28-0.44c0.075-0.158 0.111-0.332 0.107-0.507-0.005-0.353-0.143-0.691-0.387-0.947-0.187-0.185-0.425-0.31-0.684-0.36s-0.526-0.022-0.769 0.080zM17.333 17.333h-2.667c-0.354 0-0.693 0.14-0.943 0.391s-0.391 0.589-0.391 0.943c0 0.354 0.14 0.693 0.391 0.943s0.589 0.391 0.943 0.391h2.667c0.354 0 0.693-0.14 0.943-0.391s0.391-0.589 0.391-0.943c0-0.354-0.14-0.693-0.391-0.943s-0.589-0.391-0.943-0.391z"></path>
</symbol>
<symbol id="icon-gear" viewBox="0 0 32 32">
<path d="M28.427 12.733l-2.52-0.84 1.187-2.373c0.12-0.248 0.16-0.528 0.115-0.8s-0.174-0.524-0.368-0.72l-2.84-2.84c-0.197-0.197-0.451-0.328-0.726-0.373s-0.557-0.004-0.807 0.12l-2.373 1.187-0.84-2.52c-0.089-0.263-0.257-0.491-0.482-0.654s-0.494-0.251-0.772-0.253h-4c-0.28-0.001-0.552 0.086-0.78 0.249s-0.398 0.393-0.487 0.658l-0.84 2.52-2.373-1.187c-0.248-0.12-0.528-0.161-0.8-0.115s-0.524 0.174-0.72 0.369l-2.84 2.84c-0.197 0.197-0.328 0.451-0.373 0.726s-0.004 0.557 0.12 0.807l1.187 2.373-2.52 0.84c-0.263 0.089-0.491 0.257-0.654 0.482s-0.251 0.494-0.253 0.772v4c-0.001 0.279 0.086 0.552 0.249 0.78s0.393 0.398 0.658 0.487l2.52 0.84-1.187 2.373c-0.12 0.248-0.161 0.528-0.115 0.8s0.174 0.524 0.369 0.72l2.84 2.84c0.197 0.197 0.451 0.328 0.726 0.373s0.557 0.004 0.807-0.12l2.373-1.187 0.84 2.52c0.089 0.265 0.26 0.495 0.487 0.658s0.5 0.25 0.78 0.249h4c0.279 0.001 0.552-0.086 0.779-0.249s0.398-0.393 0.487-0.658l0.84-2.52 2.373 1.187c0.247 0.117 0.524 0.156 0.793 0.11s0.519-0.172 0.713-0.364l2.84-2.84c0.197-0.197 0.328-0.451 0.373-0.726s0.004-0.557-0.12-0.807l-1.187-2.373 2.52-0.84c0.263-0.089 0.491-0.257 0.654-0.482s0.251-0.494 0.253-0.772v-4c0.001-0.28-0.086-0.552-0.249-0.78s-0.393-0.398-0.658-0.487zM26.667 17.040l-1.6 0.533c-0.368 0.119-0.706 0.317-0.989 0.58s-0.507 0.584-0.654 0.942c-0.147 0.358-0.215 0.743-0.198 1.13s0.117 0.765 0.295 1.108l0.76 1.52-1.467 1.467-1.48-0.8c-0.342-0.17-0.716-0.265-1.098-0.278s-0.762 0.056-1.115 0.203c-0.353 0.147-0.67 0.367-0.93 0.647s-0.457 0.612-0.577 0.975l-0.533 1.6h-2.12l-0.533-1.6c-0.119-0.368-0.317-0.706-0.58-0.989s-0.584-0.507-0.942-0.654c-0.358-0.147-0.743-0.215-1.13-0.198s-0.765 0.117-1.108 0.295l-1.52 0.76-1.467-1.467 0.8-1.48c0.177-0.344 0.278-0.722 0.295-1.108s-0.051-0.772-0.198-1.13c-0.147-0.358-0.37-0.679-0.654-0.942s-0.621-0.461-0.989-0.58l-1.6-0.533v-2.080l1.6-0.533c0.368-0.119 0.705-0.317 0.989-0.58s0.507-0.584 0.654-0.942c0.147-0.358 0.215-0.743 0.198-1.13s-0.117-0.765-0.295-1.108l-0.76-1.48 1.467-1.467 1.48 0.76c0.344 0.177 0.722 0.278 1.108 0.295s0.772-0.051 1.13-0.198c0.358-0.147 0.679-0.37 0.942-0.654s0.461-0.621 0.58-0.989l0.533-1.6h2.080l0.533 1.6c0.119 0.368 0.317 0.705 0.58 0.989s0.584 0.507 0.942 0.654c0.358 0.147 0.743 0.215 1.13 0.198s0.765-0.117 1.108-0.295l1.52-0.76 1.467 1.467-0.8 1.48c-0.17 0.342-0.265 0.716-0.278 1.098s0.056 0.762 0.203 1.115c0.147 0.353 0.367 0.67 0.647 0.93s0.612 0.457 0.975 0.577l1.6 0.533v2.12zM16 10.667c-1.055 0-2.086 0.313-2.963 0.899s-1.561 1.419-1.964 2.394c-0.404 0.975-0.509 2.047-0.303 3.081s0.714 1.985 1.46 2.731 1.696 1.254 2.731 1.46c1.035 0.206 2.107 0.1 3.081-0.304s1.808-1.087 2.393-1.964c0.586-0.877 0.899-1.908 0.899-2.963 0-1.415-0.562-2.771-1.562-3.771s-2.357-1.562-3.771-1.562zM16 18.667c-0.527 0-1.043-0.156-1.482-0.449s-0.78-0.709-0.982-1.197c-0.202-0.487-0.255-1.023-0.152-1.541s0.357-0.992 0.73-1.365 0.848-0.627 1.365-0.73c0.517-0.103 1.053-0.050 1.541 0.152s0.904 0.544 1.197 0.982c0.293 0.439 0.449 0.954 0.449 1.482 0 0.707-0.281 1.385-0.781 1.886s-1.178 0.781-1.886 0.781z"></path>
</symbol>
<symbol id="icon-hourglass" viewBox="0 0 32 32">
<path d="M25.321 28.003h-1.333v-2.223c-0.004-0.763-0.139-1.52-0.399-2.237-0.015-0.039-0.030-0.075-0.048-0.113-0.216-0.589-0.514-1.144-0.886-1.649l-1.866-2.489c-0.518-0.694-0.798-1.536-0.8-2.401v-1.346c0.003-1.060 0.424-2.076 1.171-2.828l0.876-0.876c1.018-1.024 1.672-2.353 1.862-3.784 0.001-0.019 0.011-0.034 0.011-0.053l-0.004-0.018c0.046-0.284 0.074-0.57 0.084-0.858v-3.124h1.333c0.354 0 0.693-0.14 0.943-0.391s0.391-0.589 0.391-0.943c0-0.354-0.14-0.693-0.391-0.943s-0.589-0.391-0.943-0.391h-18.667c-0.354 0-0.693 0.14-0.943 0.391s-0.391 0.589-0.391 0.943c0 0.354 0.14 0.693 0.391 0.943s0.589 0.391 0.943 0.391h1.333v3.124c0.009 0.287 0.037 0.574 0.084 0.858l-0.004 0.018c0 0.019 0.010 0.034 0.011 0.053 0.19 1.431 0.844 2.761 1.862 3.784l0.876 0.876c0.747 0.752 1.168 1.768 1.171 2.828v1.346c-0.002 0.865-0.282 1.707-0.799 2.401l-1.868 2.49c-0.372 0.505-0.67 1.061-0.886 1.65-0.018 0.037-0.033 0.073-0.047 0.112-0.26 0.717-0.395 1.474-0.399 2.238v2.223h-1.333c-0.354 0-0.693 0.14-0.943 0.391s-0.391 0.589-0.391 0.943c0 0.354 0.14 0.693 0.391 0.943s0.589 0.391 0.943 0.391h18.667c0.354 0 0.693-0.14 0.943-0.391s0.391-0.589 0.391-0.943c0-0.354-0.14-0.693-0.391-0.943s-0.589-0.391-0.943-0.391zM10.655 6.669v-2.667h10.667v2.667h-10.667zM11.826 9.954c-0.188-0.189-0.356-0.396-0.502-0.618h9.329c-0.146 0.223-0.314 0.43-0.502 0.619l-0.876 0.876c-1.040 1.034-1.707 2.384-1.896 3.839h-2.78c-0.189-1.454-0.856-2.805-1.896-3.839l-0.876-0.876zM13.322 20.891c0.771-1.034 1.229-2.268 1.318-3.555h2.697c0.089 1.287 0.546 2.521 1.318 3.555l1.334 1.779h-8.001l1.335-1.779zM21.321 28.003h-10.667v-2.223c0.004-0.149 0.016-0.297 0.036-0.444h10.594c0.020 0.147 0.033 0.295 0.036 0.444v2.223z"></path>
</symbol>
<symbol id="icon-lightning" viewBox="0 0 32 32">
<path d="M26.491 11.467c-0.099-0.228-0.261-0.424-0.466-0.566s-0.445-0.223-0.694-0.234h-6.107l1.693-6.32c0.054-0.198 0.062-0.405 0.022-0.606s-0.125-0.391-0.249-0.554c-0.124-0.161-0.284-0.292-0.466-0.382s-0.383-0.137-0.587-0.138h-9.333c-0.301-0.010-0.597 0.082-0.839 0.261s-0.416 0.435-0.495 0.726l-3.573 13.333c-0.054 0.198-0.062 0.405-0.022 0.606s0.124 0.391 0.249 0.554c0.126 0.163 0.287 0.295 0.472 0.385s0.388 0.136 0.594 0.135h5.16l-2.413 8.987c-0.079 0.29-0.058 0.598 0.060 0.874s0.326 0.505 0.589 0.648 0.569 0.194 0.864 0.142c0.296-0.051 0.566-0.201 0.766-0.425l14.533-16c0.173-0.19 0.288-0.425 0.33-0.678s0.011-0.513-0.090-0.749zM13.438 23.040l1.427-5.333c0.054-0.198 0.062-0.405 0.022-0.606s-0.124-0.391-0.249-0.553c-0.124-0.161-0.284-0.292-0.466-0.382s-0.383-0.137-0.587-0.138h-5.12l2.853-10.693h6.573l-1.693 6.32c-0.054 0.201-0.061 0.413-0.018 0.617s0.132 0.396 0.261 0.559c0.13 0.163 0.296 0.294 0.485 0.382s0.397 0.129 0.605 0.122h4.76l-8.853 9.707z"></path>
</symbol>
<symbol id="icon-refresh" viewBox="0 0 32 32">
<path d="M28 14.667c-0.8 0-1.333 0.533-1.333 1.333 0 3.867-2 7.333-5.333 9.2-5.067 2.933-11.6 1.2-14.533-3.867s-1.2-11.6 3.867-14.533c4.4-2.533 9.733-1.6 13.067 1.867h-3.2c-0.8 0-1.333 0.533-1.333 1.333s0.533 1.333 1.333 1.333h6c0.8 0 1.333-0.533 1.333-1.333v-6c0-0.8-0.533-1.333-1.333-1.333s-1.333 0.533-1.333 1.333v2.4c-2.533-2.4-5.733-3.733-9.2-3.733-7.333 0-13.333 6-13.333 13.333s6 13.333 13.333 13.333c7.333 0 13.333-6 13.333-13.333 0-0.8-0.533-1.333-1.333-1.333z"></path>
</symbol>
<symbol id="icon-square" viewBox="0 0 32 32">
<path d="M26.667 4h-21.333c-0.8 0-1.333 0.533-1.333 1.333v21.333c0 0.8 0.533 1.333 1.333 1.333h21.333c0.8 0 1.333-0.533 1.333-1.333v-21.333c0-0.8-0.533-1.333-1.333-1.333zM25.333 14.667h-8v-8h8v8zM14.667 6.667v8h-8v-8h8zM6.667 17.333h8v8h-8v-8zM17.333 25.333v-8h8v8h-8z"></path>
</symbol>
<symbol id="icon-star" viewBox="0 0 32 32">
<path d="M29.331 12.893c-0.084-0.244-0.237-0.458-0.441-0.617s-0.449-0.255-0.706-0.277l-7.587-1.107-3.4-6.893c-0.109-0.225-0.28-0.416-0.492-0.549s-0.458-0.204-0.708-0.204c-0.25 0-0.496 0.071-0.708 0.204s-0.383 0.323-0.492 0.549l-3.4 6.88-7.587 1.12c-0.247 0.035-0.479 0.139-0.67 0.299s-0.333 0.371-0.41 0.608c-0.071 0.232-0.077 0.478-0.018 0.713s0.18 0.449 0.352 0.62l5.507 5.333-1.333 7.573c-0.054 0.251-0.034 0.513 0.057 0.753s0.25 0.449 0.457 0.601c0.207 0.152 0.454 0.241 0.71 0.256s0.512-0.044 0.736-0.17l6.8-3.56 6.8 3.56c0.187 0.106 0.398 0.161 0.613 0.16 0.282 0.001 0.558-0.088 0.787-0.253 0.207-0.148 0.367-0.352 0.461-0.589s0.119-0.495 0.072-0.745l-1.333-7.573 5.507-5.333c0.193-0.163 0.335-0.377 0.41-0.618s0.081-0.498 0.016-0.742zM21.131 18.227c-0.154 0.15-0.27 0.335-0.338 0.539s-0.084 0.422-0.049 0.634l0.96 5.6-5.013-2.667c-0.195-0.096-0.409-0.147-0.627-0.147s-0.432 0.050-0.627 0.147l-5.013 2.667 0.96-5.6c0.035-0.212 0.018-0.43-0.049-0.634s-0.183-0.389-0.337-0.539l-4-4 5.613-0.813c0.216-0.030 0.421-0.113 0.598-0.24s0.319-0.297 0.415-0.493l2.373-5.080 2.507 5.093c0.096 0.196 0.239 0.365 0.415 0.493s0.382 0.21 0.598 0.24l5.613 0.813-4 3.987z"></path>
</symbol>
<symbol id="icon-user-chek" viewBox="0 0 32 32">
<path d="M17.733 16.293c0.711-0.616 1.282-1.377 1.673-2.233s0.594-1.786 0.594-2.727c0-1.768-0.702-3.464-1.953-4.714s-2.946-1.953-4.714-1.953c-1.768 0-3.464 0.702-4.714 1.953s-1.953 2.946-1.953 4.714c0 0.941 0.202 1.871 0.593 2.727s0.962 1.618 1.673 2.233c-1.866 0.845-3.45 2.21-4.561 3.931s-1.703 3.726-1.705 5.775c0 0.354 0.14 0.693 0.391 0.943s0.589 0.391 0.943 0.391c0.354 0 0.693-0.14 0.943-0.391s0.391-0.589 0.391-0.943c0-2.122 0.843-4.157 2.343-5.657s3.535-2.343 5.657-2.343c2.122 0 4.157 0.843 5.657 2.343s2.343 3.535 2.343 5.657c0 0.354 0.14 0.693 0.391 0.943s0.589 0.391 0.943 0.391c0.354 0 0.693-0.14 0.943-0.391s0.391-0.589 0.391-0.943c-0.002-2.049-0.594-4.054-1.705-5.775s-2.695-3.086-4.561-3.931zM13.333 15.333c-0.791 0-1.564-0.235-2.222-0.674s-1.17-1.064-1.473-1.795c-0.303-0.731-0.382-1.535-0.228-2.311s0.535-1.489 1.095-2.048c0.559-0.559 1.272-0.94 2.048-1.095s1.58-0.075 2.311 0.228c0.731 0.303 1.356 0.815 1.795 1.473s0.674 1.431 0.674 2.222c0 1.061-0.422 2.078-1.172 2.828s-1.768 1.172-2.829 1.172zM28.947 12.173c-0.124-0.125-0.271-0.224-0.434-0.292s-0.337-0.103-0.513-0.103c-0.176 0-0.35 0.035-0.513 0.103s-0.31 0.167-0.434 0.292l-2.667 2.667-0.827-0.84c-0.124-0.125-0.272-0.224-0.434-0.292s-0.337-0.103-0.513-0.103c-0.176 0-0.35 0.035-0.513 0.103s-0.31 0.167-0.434 0.292c-0.248 0.25-0.388 0.588-0.388 0.94s0.139 0.69 0.388 0.94l1.787 1.787c0.25 0.248 0.588 0.388 0.94 0.388s0.69-0.139 0.94-0.388l3.56-3.56c0.135-0.121 0.243-0.268 0.319-0.432s0.118-0.342 0.123-0.523c0.005-0.181-0.027-0.361-0.094-0.529s-0.167-0.321-0.295-0.449z"></path>
</symbol>
<symbol id="icon-facebook" viewBox="0 0 32 32">
<path d="M25.105 12.587c-0.122-0.181-0.287-0.329-0.48-0.431s-0.408-0.156-0.627-0.155h-4v-2.667h2.933c0.354 0 0.693-0.14 0.943-0.391s0.391-0.589 0.391-0.943v-5.333c0-0.354-0.14-0.693-0.391-0.943s-0.589-0.391-0.943-0.391h-4.267c-2.051 0-4.018 0.815-5.468 2.265s-2.265 3.417-2.265 5.468v2.933h-2.933c-0.354 0-0.693 0.14-0.943 0.391s-0.391 0.589-0.391 0.943v5.333c0 0.354 0.14 0.693 0.391 0.943s0.589 0.391 0.943 0.391h2.933v9.333c0 0.354 0.14 0.693 0.391 0.943s0.589 0.391 0.943 0.391h6.4c0.354 0 0.693-0.14 0.943-0.391s0.391-0.589 0.391-0.943v-9.333h1.867c0.267 0 0.528-0.080 0.749-0.23s0.392-0.363 0.491-0.611l2.133-5.333c0.081-0.202 0.111-0.42 0.087-0.637s-0.099-0.423-0.221-0.604zM20.958 17.333h-2.293c-0.354 0-0.693 0.141-0.943 0.391s-0.391 0.589-0.391 0.943v9.333h-3.733v-9.333c0-0.354-0.14-0.693-0.391-0.943s-0.589-0.391-0.943-0.391h-2.933v-2.667h2.933c0.354 0 0.693-0.14 0.943-0.391s0.391-0.589 0.391-0.943v-4.267c0.003-1.343 0.539-2.629 1.488-3.579s2.236-1.484 3.579-1.488h2.933v2.667h-1.067c-0.451-0.066-0.912-0.038-1.352 0.081s-0.852 0.328-1.208 0.612c-0.216 0.227-0.385 0.495-0.495 0.788s-0.159 0.606-0.145 0.919v4.267c0 0.354 0.14 0.693 0.391 0.943s0.589 0.391 0.943 0.391h3.36l-1.067 2.667z"></path>
</symbol>
<symbol id="icon-instagram" viewBox="0 0 32 32">
<path d="M23.118 7.28c-0.316 0-0.626 0.094-0.889 0.27s-0.468 0.426-0.589 0.718c-0.121 0.292-0.153 0.614-0.091 0.924s0.214 0.595 0.438 0.819c0.224 0.224 0.509 0.376 0.819 0.438s0.632 0.030 0.925-0.091c0.292-0.121 0.542-0.326 0.718-0.589s0.27-0.572 0.27-0.889c0-0.424-0.169-0.831-0.469-1.131s-0.707-0.469-1.131-0.469zM29.252 10.507c-0.026-1.106-0.233-2.201-0.613-3.24-0.339-0.889-0.867-1.694-1.547-2.36-0.66-0.683-1.467-1.208-2.36-1.533-1.036-0.392-2.132-0.604-3.24-0.627-1.413-0.080-1.867-0.080-5.493-0.080s-4.080 0-5.493 0.080c-1.108 0.023-2.204 0.235-3.24 0.627-0.891 0.329-1.697 0.853-2.36 1.533-0.683 0.66-1.208 1.467-1.533 2.36-0.392 1.036-0.604 2.132-0.627 3.24-0.080 1.413-0.080 1.867-0.080 5.493s0 4.080 0.080 5.493c0.023 1.108 0.235 2.204 0.627 3.24 0.326 0.893 0.85 1.7 1.533 2.36 0.663 0.681 1.469 1.204 2.36 1.533 1.036 0.392 2.132 0.604 3.24 0.627 1.413 0.080 1.867 0.080 5.493 0.080s4.080 0 5.493-0.080c1.108-0.023 2.204-0.235 3.24-0.627 0.893-0.326 1.7-0.85 2.36-1.533 0.683-0.663 1.211-1.469 1.547-2.36 0.38-1.039 0.587-2.134 0.613-3.24 0-1.413 0.080-1.867 0.080-5.493s0-4.080-0.080-5.493zM26.852 21.333c-0.010 0.846-0.163 1.685-0.453 2.48-0.213 0.58-0.555 1.105-1 1.533-0.432 0.441-0.956 0.782-1.533 1-0.795 0.29-1.634 0.444-2.48 0.453-1.333 0.067-1.827 0.080-5.333 0.080s-4 0-5.333-0.080c-0.879 0.017-1.754-0.119-2.587-0.4-0.552-0.229-1.052-0.57-1.467-1-0.443-0.428-0.78-0.953-0.987-1.533-0.326-0.807-0.506-1.664-0.533-2.533 0-1.333-0.080-1.827-0.080-5.333s0-4 0.080-5.333c0.006-0.865 0.164-1.723 0.467-2.533 0.235-0.563 0.595-1.064 1.053-1.467 0.405-0.458 0.906-0.823 1.467-1.067 0.813-0.293 1.669-0.447 2.533-0.453 1.333 0 1.827-0.080 5.333-0.080s4 0 5.333 0.080c0.846 0.010 1.685 0.163 2.48 0.453 0.606 0.225 1.15 0.59 1.587 1.067 0.437 0.41 0.778 0.91 1 1.467 0.296 0.812 0.45 1.669 0.453 2.533 0.067 1.333 0.080 1.827 0.080 5.333s-0.013 4-0.080 5.333zM15.998 9.16c-1.352 0.003-2.673 0.406-3.796 1.159s-1.998 1.822-2.513 3.072c-0.516 1.25-0.649 2.625-0.384 3.951s0.918 2.543 1.875 3.499c0.957 0.955 2.176 1.605 3.502 1.868s2.701 0.127 3.95-0.391c1.249-0.518 2.317-1.395 3.068-2.519s1.152-2.446 1.152-3.799c0.002-0.9-0.174-1.791-0.518-2.623s-0.849-1.587-1.486-2.223-1.393-1.139-2.225-1.482c-0.832-0.342-1.724-0.517-2.624-0.513zM15.998 20.44c-0.878 0-1.737-0.26-2.467-0.748s-1.299-1.181-1.635-1.993c-0.336-0.811-0.424-1.704-0.253-2.565s0.594-1.652 1.215-2.273c0.621-0.621 1.412-1.044 2.273-1.215s1.754-0.083 2.565 0.253c0.811 0.336 1.505 0.905 1.993 1.635s0.748 1.589 0.748 2.467c0 0.583-0.115 1.16-0.338 1.699s-0.55 1.028-0.962 1.44-0.902 0.739-1.441 0.962c-0.539 0.223-1.116 0.338-1.699 0.338z"></path>
</symbol>
<symbol id="icon-twiter" viewBox="0 0 32 32">
<path d="M30.654 5.267c0-0.236-0.062-0.467-0.18-0.67s-0.289-0.372-0.493-0.489-0.437-0.177-0.672-0.174c-0.236 0.002-0.466 0.067-0.669 0.188-0.78 0.465-1.621 0.82-2.497 1.057-1.252-1.074-2.849-1.662-4.499-1.656-1.81 0.002-3.548 0.707-4.848 1.967s-2.059 2.975-2.117 4.784c-3.568-0.569-6.802-2.431-9.085-5.232-0.138-0.167-0.313-0.298-0.512-0.383s-0.415-0.12-0.631-0.104c-0.216 0.018-0.423 0.088-0.606 0.204s-0.334 0.275-0.441 0.463c-0.55 0.96-0.866 2.036-0.922 3.14s0.149 2.207 0.599 3.218l-0.003 0.003c-0.202 0.125-0.369 0.299-0.485 0.506s-0.176 0.441-0.175 0.679c-0.002 0.196 0.009 0.392 0.035 0.586 0.136 1.678 0.88 3.248 2.091 4.417-0.082 0.157-0.132 0.328-0.148 0.504s0.005 0.354 0.059 0.522c0.528 1.645 1.651 3.035 3.15 3.896-1.522 0.589-3.166 0.794-4.786 0.598-0.3-0.038-0.604 0.028-0.862 0.185s-0.454 0.398-0.558 0.683c-0.103 0.284-0.107 0.595-0.010 0.881s0.288 0.531 0.542 0.695c2.787 1.795 6.032 2.749 9.346 2.749 3.759 0.042 7.427-1.159 10.432-3.417s5.181-5.446 6.187-9.068c0.471-1.578 0.711-3.215 0.714-4.862 0-0.087 0-0.177-0.001-0.267 0.696-0.751 1.235-1.633 1.586-2.595s0.506-1.984 0.457-3.007zM26.245 9.55c-0.22 0.26-0.332 0.596-0.311 0.936 0.013 0.22 0.012 0.441 0.012 0.65-0.003 1.391-0.207 2.775-0.605 4.108-0.822 3.082-2.654 5.799-5.204 7.715s-5.668 2.922-8.857 2.856c-1.146 0-2.287-0.134-3.401-0.401 1.421-0.458 2.749-1.164 3.923-2.085 0.216-0.17 0.375-0.403 0.453-0.667s0.074-0.546-0.014-0.806c-0.088-0.261-0.254-0.488-0.477-0.651s-0.489-0.252-0.764-0.257c-1.108-0.017-2.167-0.464-2.952-1.246 0.199-0.038 0.397-0.085 0.594-0.141 0.288-0.082 0.54-0.258 0.716-0.501s0.264-0.537 0.252-0.836c-0.012-0.299-0.125-0.586-0.32-0.813s-0.461-0.383-0.754-0.441c-0.643-0.127-1.249-0.401-1.769-0.8s-0.942-0.913-1.231-1.501c0.241 0.033 0.483 0.053 0.727 0.061 0.289 0.004 0.571-0.083 0.807-0.25s0.412-0.404 0.504-0.678c0.088-0.276 0.083-0.574-0.013-0.847s-0.279-0.508-0.521-0.668c-0.586-0.391-1.067-0.921-1.398-1.543s-0.503-1.316-0.5-2.021c0-0.089 0.003-0.177 0.008-0.264 2.988 2.787 6.864 4.43 10.945 4.639 0.206 0.008 0.411-0.031 0.6-0.113s0.356-0.207 0.49-0.364c0.132-0.159 0.226-0.346 0.274-0.546s0.048-0.41 0.001-0.611c-0.076-0.318-0.115-0.644-0.116-0.971 0.001-1.141 0.455-2.234 1.261-3.041s1.9-1.26 3.041-1.261c0.587-0.002 1.168 0.119 1.706 0.353s1.022 0.577 1.421 1.008c0.154 0.165 0.347 0.289 0.562 0.358s0.444 0.083 0.666 0.039c0.548-0.107 1.088-0.25 1.616-0.43-0.36 0.737-0.821 1.421-1.368 2.033z"></path>
</symbol>
<symbol id="icon-bigester" viewBox="0 0 32 32">
<path fill="#fbfbff" style="fill: var(--color1, #fbfbff)" d="M7.529 7.906c0-1.040 0.843-1.882 1.882-1.882h13.176c1.040 0 1.882 0.843 1.882 1.882v13.176c0 1.040-0.843 1.882-1.882 1.882h-13.176c-1.040 0-1.882-0.843-1.882-1.882v-13.176z"></path>
<path fill="#1a1930" style="fill: var(--color2, #1a1930)" d="M18.471 14.988l-3.953 4.024c-0.282 0.282-0.706 0.282-0.988 0s-0.282-0.706 0-0.988l3.459-3.459-3.459-3.459c-0.141-0.141-0.212-0.282-0.212-0.494 0-0.424 0.282-0.706 0.706-0.706 0.212 0 0.353 0.071 0.494 0.212l4.024 4.024c0.212 0.141 0.212 0.565-0.071 0.847z"></path>
</symbol>
<symbol id="icon-small" viewBox="0 0 32 32">
<path fill="#fbfbff" style="fill: var(--color1, #fbfbff)" d="M7.529 7.906c0-1.040 0.843-1.882 1.882-1.882h13.176c1.040 0 1.882 0.843 1.882 1.882v13.176c0 1.040-0.843 1.882-1.882 1.882h-13.176c-1.040 0-1.882-0.843-1.882-1.882v-13.176z"></path>
<path fill="#1a1930" style="fill: var(--color2, #1a1930)" d="M13.529 14.988l3.953 4.024c0.282 0.282 0.706 0.282 0.988 0s0.282-0.706 0-0.988l-3.459-3.459 3.459-3.459c0.141-0.141 0.212-0.282 0.212-0.494 0-0.424-0.282-0.706-0.706-0.706-0.212 0-0.353 0.071-0.494 0.212l-4.024 4.024c-0.212 0.141-0.212 0.565 0.071 0.847z"></path>
</symbol>
<symbol id="icon-webflow-logo" viewBox="0 0 128 32">
<path d="M41.331 12.458c0-2.272-2.233-4.686-6.097-4.686-4.339 0-9.106 3.15-9.834 9.434-0.744 6.347 3.246 9.167 7.269 9.167s6.128-1.551 8.282-3.62c-1.853-2.304-4.244-1.238-4.703-1.003-0.507 0.251-1.156 0.595-2.486 0.595-1.552 0-3.136-0.689-3.136-3.557 9.945-0.972 10.705-4.059 10.705-6.331zM36.406 12.834c-0.063 0.705-0.348 1.912-5.384 2.586 1.061-3.73 3.088-4.012 4.022-4.012 0.871 0 1.425 0.674 1.362 1.426zM19.557 13.446c0 0-2.138 6.644-2.312 7.193-0.063-0.564-1.631-12.49-1.631-12.49-3.642 0-5.59 2.57-6.619 5.281 0 0-2.597 6.66-2.819 7.224-0.016-0.517-0.396-7.146-0.396-7.146-0.222-3.322-3.294-5.344-5.78-5.344l3.009 18.068c3.816-0.016 5.875-2.57 6.952-5.281 0 0 2.296-5.876 2.391-6.143 0.016 0.251 1.647 11.424 1.647 11.424 3.832 0 5.891-2.398 6.999-5.015l5.368-13.054c-3.785 0-5.78 2.554-6.809 5.281zM55.393 7.741c-2.359 0-4.165 1.269-5.685 3.134v-0.016l1.362-10.86c-3.136 0-5.685 2.695-6.176 6.707l-2.375 19.385c1.805 0 3.721-0.517 4.751-1.833 0.919 1.175 2.296 2.115 4.339 2.115 5.289 0 8.915-6.080 8.915-11.784-0.032-5.203-2.581-6.848-5.131-6.848zM54.902 17.066c-0.554 3.181-2.344 5.344-4.070 5.344-1.742 0-2.486-0.768-2.486-0.768 0.333-2.789 0.538-4.498 1.172-5.971s2.138-3.824 3.706-3.824c1.536 0 2.233 2.022 1.679 5.218zM73.731 8.164h-3.69l0.015-0.188c0.253-2.382 0.823-3.636 2.708-3.839 1.283-0.125 1.853-0.784 1.995-1.504 0.111-0.564 0.46-2.523 0.46-2.523-7.411-0.047-9.739 3.118-10.341 7.945l-0.016 0.11h-0.079c-1.204 0-2.534 1.348-2.755 3.056l-0.079 0.627h2.47l-2.075 16.956-0.633 3.040c0.079 0 0.174 0.016 0.253 0.016 3.468-0.125 5.685-2.836 6.176-6.77l1.615-13.242h1.156c1.141 0 2.47-1.128 2.708-3.009l0.111-0.674zM92.924 7.851c-4.26 0-8.283 3.103-9.518 7.976s0.633 10.64 6.904 10.64c6.255 0 9.866-6.002 9.866-11.001 0-4.968-3.405-7.616-7.252-7.616zM94.65 16.909c-0.221 2.21-1.203 5.563-3.895 5.563-2.708 0-2.328-3.918-2.059-5.782 0.285-1.99 1.409-4.827 3.832-4.827 2.171 0 2.375 2.554 2.122 5.046zM121.222 13.446c0 0-2.138 6.644-2.312 7.193-0.063-0.564-1.631-12.49-1.631-12.49-3.642 0-5.59 2.57-6.619 5.281 0 0-2.597 6.66-2.819 7.224-0.016-0.517-0.396-7.146-0.396-7.146-0.221-3.322-3.293-5.344-5.78-5.344l2.993 18.068c3.816-0.016 5.875-2.57 6.951-5.281 0 0 2.297-5.876 2.375-6.143 0.032 0.251 1.648 11.424 1.648 11.424 3.832 0 5.891-2.398 6.999-5.015l5.369-13.054c-3.769 0-5.764 2.554-6.778 5.281zM77.215 0.11l-3.104 24.775-0.634 3.056c0.079 0 0.174 0.016 0.254 0.016 3.341-0.047 5.716-2.946 6.159-6.597l1.79-14.213c0.538-4.341-2.075-7.036-4.466-7.036z"></path>
</symbol>
<symbol id="icon-facebook1" viewBox="0 0 32 32">
<path d="M19 6h5v-6h-5c-3.86 0-7 3.14-7 7v3h-4v6h4v16h6v-16h5l1-6h-6v-3c0-0.542 0.458-1 1-1z"></path>
</symbol>
<symbol id="icon-telegram" viewBox="0 0 32 32">
<path d="M16 0c-8.838 0-16 7.162-16 16s7.162 16 16 16 16-7.163 16-16-7.163-16-16-16zM23.863 10.969l-2.625 12.369c-0.181 0.881-0.712 1.087-1.45 0.681l-4-2.956-1.919 1.869c-0.225 0.219-0.4 0.4-0.8 0.4-0.519 0-0.431-0.194-0.606-0.688l-1.363-4.475-3.956-1.231c-0.856-0.262-0.862-0.85 0.194-1.269l15.412-5.95c0.7-0.319 1.381 0.169 1.113 1.25z"></path>
</symbol>
<symbol id="icon-twitter" viewBox="0 0 32 32">
<path d="M32 7.075c-1.175 0.525-2.444 0.875-3.769 1.031 1.356-0.813 2.394-2.1 2.887-3.631-1.269 0.75-2.675 1.3-4.169 1.594-1.2-1.275-2.906-2.069-4.794-2.069-3.625 0-6.563 2.938-6.563 6.563 0 0.512 0.056 1.012 0.169 1.494-5.456-0.275-10.294-2.888-13.531-6.862-0.563 0.969-0.887 2.1-0.887 3.3 0 2.275 1.156 4.287 2.919 5.463-1.075-0.031-2.087-0.331-2.975-0.819 0 0.025 0 0.056 0 0.081 0 3.181 2.263 5.838 5.269 6.437-0.55 0.15-1.131 0.231-1.731 0.231-0.425 0-0.831-0.044-1.237-0.119 0.838 2.606 3.263 4.506 6.131 4.563-2.25 1.762-5.075 2.813-8.156 2.813-0.531 0-1.050-0.031-1.569-0.094 2.913 1.869 6.362 2.95 10.069 2.95 12.075 0 18.681-10.006 18.681-18.681 0-0.287-0.006-0.569-0.019-0.85 1.281-0.919 2.394-2.075 3.275-3.394z"></path>
</symbol>
<symbol id="icon-menu" viewBox="0 0 32 32">
<path d="M6.4 11.733v-2.133h19.2v2.133h-19.2zM6.4 17.067h19.2v-2.133h-19.2v2.133zM6.4 22.4h19.2v-2.133h-19.2v2.133z"></path>
</symbol>
<symbol id="icon-close-menu" viewBox="0 0 32 32">
<path d="M23.733 10.304l-1.504-1.504-5.963 5.963-5.963-5.963-1.504 1.504 5.963 5.963-5.963 5.963 1.504 1.504 5.963-5.963 5.963 5.963 1.504-1.504-5.963-5.963 5.963-5.963z"></path>
</symbol>
</defs>
</svg>
